<svg xmlns="http://www.w3.org/2000/svg" viewBox="0 0 1000 1084" font-family="Helvetica,Arial,sans-serif">
<rect width="1000" height="1084" fill="#F2ECE0"/>
<text x="500" y="46" text-anchor="middle" font-size="26" font-weight="800" fill="#1A1A1A">Concepto 1 · Radial completo 48 → Campeón</text>
<text x="500" y="70" text-anchor="middle" font-size="12.5" letter-spacing="3" fill="#8a8478" font-weight="700">CINTURÓN DE GRUPOS + ESPIRAL ELIMINATORIA EN UN SOLO GRÁFICO</text>
<path d="M 500.0 260.0 L 500.0 322.0 L 523.3 323.1" fill="none" stroke="#2A2A2A" stroke-width="1.1" opacity="0.35" stroke-linejoin="round"/>
<path d="M 558.5 265.8 L 546.4 326.6 L 523.3 323.1" fill="none" stroke="#2A2A2A" stroke-width="1.1" opacity="0.35" stroke-linejoin="round"/>
<path d="M 614.8 282.8 L 591.1 340.1 L 612.2 350.1" fill="none" stroke="#2A2A2A" stroke-width="1.1" opacity="0.35" stroke-linejoin="round"/>
<path d="M 666.7 310.6 L 632.2 362.1 L 612.2 350.1" fill="none" stroke="#2A2A2A" stroke-width="1.1" opacity="0.35" stroke-linejoin="round"/>
<path d="M 712.1 347.9 L 668.3 391.7 L 684.0 409.0" fill="none" stroke="#2A2A2A" stroke-width="1.1" opacity="0.35" stroke-linejoin="round"/>
<path d="M 749.4 393.3 L 697.9 427.8 L 684.0 409.0" fill="none" stroke="#2A2A2A" stroke-width="1.1" opacity="0.35" stroke-linejoin="round"/>
<path d="M 777.2 445.2 L 719.9 468.9 L 727.8 490.9" fill="none" stroke="#2A2A2A" stroke-width="1.1" opacity="0.35" stroke-linejoin="round"/>
<path d="M 794.2 501.5 L 733.4 513.6 L 727.8 490.9" fill="none" stroke="#2A2A2A" stroke-width="1.1" opacity="0.35" stroke-linejoin="round"/>
<path d="M 800.0 560.0 L 738.0 560.0 L 736.9 583.3" fill="none" stroke="#2A2A2A" stroke-width="1.1" opacity="0.35" stroke-linejoin="round"/>
<path d="M 794.2 618.5 L 733.4 606.4 L 736.9 583.3" fill="none" stroke="#2A2A2A" stroke-width="1.1" opacity="0.35" stroke-linejoin="round"/>
<path d="M 777.2 674.8 L 719.9 651.1 L 709.9 672.2" fill="none" stroke="#2A2A2A" stroke-width="1.1" opacity="0.35" stroke-linejoin="round"/>
<path d="M 749.4 726.7 L 697.9 692.2 L 709.9 672.2" fill="none" stroke="#2A2A2A" stroke-width="1.1" opacity="0.35" stroke-linejoin="round"/>
<path d="M 712.1 772.1 L 668.3 728.3 L 651.0 744.0" fill="none" stroke="#2A2A2A" stroke-width="1.1" opacity="0.35" stroke-linejoin="round"/>
<path d="M 666.7 809.4 L 632.2 757.9 L 651.0 744.0" fill="none" stroke="#2A2A2A" stroke-width="1.1" opacity="0.35" stroke-linejoin="round"/>
<path d="M 614.8 837.2 L 591.1 779.9 L 569.1 787.8" fill="none" stroke="#2A2A2A" stroke-width="1.1" opacity="0.35" stroke-linejoin="round"/>
<path d="M 558.5 854.2 L 546.4 793.4 L 569.1 787.8" fill="none" stroke="#2A2A2A" stroke-width="1.1" opacity="0.35" stroke-linejoin="round"/>
<path d="M 500.0 860.0 L 500.0 798.0 L 476.7 796.9" fill="none" stroke="#2A2A2A" stroke-width="1.1" opacity="0.35" stroke-linejoin="round"/>
<path d="M 441.5 854.2 L 453.6 793.4 L 476.7 796.9" fill="none" stroke="#2A2A2A" stroke-width="1.1" opacity="0.35" stroke-linejoin="round"/>
<path d="M 385.2 837.2 L 408.9 779.9 L 387.8 769.9" fill="none" stroke="#2A2A2A" stroke-width="1.1" opacity="0.35" stroke-linejoin="round"/>
<path d="M 333.3 809.4 L 367.8 757.9 L 387.8 769.9" fill="none" stroke="#2A2A2A" stroke-width="1.1" opacity="0.35" stroke-linejoin="round"/>
<path d="M 287.9 772.1 L 331.7 728.3 L 316.0 711.0" fill="none" stroke="#2A2A2A" stroke-width="1.1" opacity="0.35" stroke-linejoin="round"/>
<path d="M 250.6 726.7 L 302.1 692.2 L 316.0 711.0" fill="none" stroke="#2A2A2A" stroke-width="1.1" opacity="0.35" stroke-linejoin="round"/>
<path d="M 222.8 674.8 L 280.1 651.1 L 272.2 629.1" fill="none" stroke="#2A2A2A" stroke-width="1.1" opacity="0.35" stroke-linejoin="round"/>
<path d="M 205.8 618.5 L 266.6 606.4 L 272.2 629.1" fill="none" stroke="#2A2A2A" stroke-width="1.1" opacity="0.35" stroke-linejoin="round"/>
<path d="M 200.0 560.0 L 262.0 560.0 L 263.1 536.7" fill="none" stroke="#2A2A2A" stroke-width="1.1" opacity="0.35" stroke-linejoin="round"/>
<path d="M 205.8 501.5 L 266.6 513.6 L 263.1 536.7" fill="none" stroke="#2A2A2A" stroke-width="1.1" opacity="0.35" stroke-linejoin="round"/>
<path d="M 222.8 445.2 L 280.1 468.9 L 290.1 447.8" fill="none" stroke="#2A2A2A" stroke-width="1.1" opacity="0.35" stroke-linejoin="round"/>
<path d="M 250.6 393.3 L 302.1 427.8 L 290.1 447.8" fill="none" stroke="#2A2A2A" stroke-width="1.1" opacity="0.35" stroke-linejoin="round"/>
<path d="M 287.9 347.9 L 331.7 391.7 L 349.0 376.0" fill="none" stroke="#2A2A2A" stroke-width="1.1" opacity="0.35" stroke-linejoin="round"/>
<path d="M 333.3 310.6 L 367.8 362.1 L 349.0 376.0" fill="none" stroke="#2A2A2A" stroke-width="1.1" opacity="0.35" stroke-linejoin="round"/>
<path d="M 385.2 282.8 L 408.9 340.1 L 430.9 332.2" fill="none" stroke="#2A2A2A" stroke-width="1.1" opacity="0.35" stroke-linejoin="round"/>
<path d="M 441.5 265.8 L 453.6 326.6 L 430.9 332.2" fill="none" stroke="#2A2A2A" stroke-width="1.1" opacity="0.35" stroke-linejoin="round"/>
<path d="M 523.3 323.1 L 517.6 380.9 L 552.3 387.8" fill="none" stroke="#2A2A2A" stroke-width="1.1" opacity="0.35" stroke-linejoin="round"/>
<path d="M 612.2 350.1 L 584.9 401.3 L 552.3 387.8" fill="none" stroke="#2A2A2A" stroke-width="1.1" opacity="0.35" stroke-linejoin="round"/>
<path d="M 684.0 409.0 L 639.1 445.8 L 658.7 475.1" fill="none" stroke="#2A2A2A" stroke-width="1.1" opacity="0.35" stroke-linejoin="round"/>
<path d="M 727.8 490.9 L 672.2 507.7 L 658.7 475.1" fill="none" stroke="#2A2A2A" stroke-width="1.1" opacity="0.35" stroke-linejoin="round"/>
<path d="M 736.9 583.3 L 679.1 577.6 L 672.2 612.3" fill="none" stroke="#2A2A2A" stroke-width="1.1" opacity="0.35" stroke-linejoin="round"/>
<path d="M 709.9 672.2 L 658.7 644.9 L 672.2 612.3" fill="none" stroke="#2A2A2A" stroke-width="1.1" opacity="0.35" stroke-linejoin="round"/>
<path d="M 651.0 744.0 L 614.2 699.1 L 584.9 718.7" fill="none" stroke="#2A2A2A" stroke-width="1.1" opacity="0.35" stroke-linejoin="round"/>
<path d="M 569.1 787.8 L 552.3 732.2 L 584.9 718.7" fill="none" stroke="#2A2A2A" stroke-width="1.1" opacity="0.35" stroke-linejoin="round"/>
<path d="M 476.7 796.9 L 482.4 739.1 L 447.7 732.2" fill="none" stroke="#2A2A2A" stroke-width="1.1" opacity="0.35" stroke-linejoin="round"/>
<path d="M 387.8 769.9 L 415.1 718.7 L 447.7 732.2" fill="none" stroke="#2A2A2A" stroke-width="1.1" opacity="0.35" stroke-linejoin="round"/>
<path d="M 316.0 711.0 L 360.9 674.2 L 341.3 644.9" fill="none" stroke="#2A2A2A" stroke-width="1.1" opacity="0.35" stroke-linejoin="round"/>
<path d="M 272.2 629.1 L 327.8 612.3 L 341.3 644.9" fill="none" stroke="#2A2A2A" stroke-width="1.1" opacity="0.35" stroke-linejoin="round"/>
<path d="M 263.1 536.7 L 320.9 542.4 L 327.8 507.7" fill="none" stroke="#2A2A2A" stroke-width="1.1" opacity="0.35" stroke-linejoin="round"/>
<path d="M 290.1 447.8 L 341.3 475.1 L 327.8 507.7" fill="none" stroke="#2A2A2A" stroke-width="1.1" opacity="0.35" stroke-linejoin="round"/>
<path d="M 349.0 376.0 L 385.8 420.9 L 415.1 401.3" fill="none" stroke="#2A2A2A" stroke-width="1.1" opacity="0.35" stroke-linejoin="round"/>
<path d="M 430.9 332.2 L 447.7 387.8 L 415.1 401.3" fill="none" stroke="#2A2A2A" stroke-width="1.1" opacity="0.35" stroke-linejoin="round"/>
<path d="M 552.3 387.8 L 536.0 441.3 L 578.7 464.1" fill="none" stroke="#2A2A2A" stroke-width="1.1" opacity="0.35" stroke-linejoin="round"/>
<path d="M 658.7 475.1 L 609.4 501.5 L 578.7 464.1" fill="none" stroke="#2A2A2A" stroke-width="1.1" opacity="0.35" stroke-linejoin="round"/>
<path d="M 672.2 612.3 L 618.7 596.0 L 595.9 638.7" fill="none" stroke="#2A2A2A" stroke-width="1.1" opacity="0.35" stroke-linejoin="round"/>
<path d="M 584.9 718.7 L 558.5 669.4 L 595.9 638.7" fill="none" stroke="#2A2A2A" stroke-width="1.1" opacity="0.35" stroke-linejoin="round"/>
<path d="M 447.7 732.2 L 464.0 678.7 L 421.3 655.9" fill="none" stroke="#2A2A2A" stroke-width="1.1" opacity="0.35" stroke-linejoin="round"/>
<path d="M 341.3 644.9 L 390.6 618.5 L 421.3 655.9" fill="none" stroke="#2A2A2A" stroke-width="1.1" opacity="0.35" stroke-linejoin="round"/>
<path d="M 327.8 507.7 L 381.3 524.0 L 404.1 481.3" fill="none" stroke="#2A2A2A" stroke-width="1.1" opacity="0.35" stroke-linejoin="round"/>
<path d="M 415.1 401.3 L 441.5 450.6 L 404.1 481.3" fill="none" stroke="#2A2A2A" stroke-width="1.1" opacity="0.35" stroke-linejoin="round"/>
<path d="M 578.7 464.1 L 544.4 505.9 L 569.7 553.1" fill="none" stroke="#2A2A2A" stroke-width="1.1" opacity="0.35" stroke-linejoin="round"/>
<path d="M 595.9 638.7 L 554.1 604.4 L 569.7 553.1" fill="none" stroke="#2A2A2A" stroke-width="1.1" opacity="0.35" stroke-linejoin="round"/>
<path d="M 421.3 655.9 L 455.6 614.1 L 430.3 566.9" fill="none" stroke="#2A2A2A" stroke-width="1.1" opacity="0.35" stroke-linejoin="round"/>
<path d="M 404.1 481.3 L 445.9 515.6 L 430.3 566.9" fill="none" stroke="#2A2A2A" stroke-width="1.1" opacity="0.35" stroke-linejoin="round"/>
<line x1="569.7" y1="553.1" x2="500" y2="560" stroke="#2A2A2A" stroke-width="1.1" opacity="0.35"/>
<line x1="430.3" y1="566.9" x2="500" y2="560" stroke="#2A2A2A" stroke-width="1.1" opacity="0.35"/>
<circle cx="500.0" cy="260.0" r="9" fill="#F2ECE0" stroke="#1A1A1A" stroke-width="1.4"/>
<circle cx="500.0" cy="260.0" r="5.8" fill="#9d9686"/>
<circle cx="558.5" cy="265.8" r="9" fill="#F2ECE0" stroke="#1A1A1A" stroke-width="1.4"/>
<circle cx="558.5" cy="265.8" r="5.8" fill="#9d9686"/>
<circle cx="614.8" cy="282.8" r="9" fill="#F2ECE0" stroke="#1A1A1A" stroke-width="1.4"/>
<circle cx="614.8" cy="282.8" r="5.8" fill="#9d9686"/>
<circle cx="666.7" cy="310.6" r="9" fill="#F2ECE0" stroke="#1A1A1A" stroke-width="1.4"/>
<circle cx="666.7" cy="310.6" r="5.8" fill="#9d9686"/>
<circle cx="712.1" cy="347.9" r="9" fill="#F2ECE0" stroke="#1A1A1A" stroke-width="1.4"/>
<circle cx="712.1" cy="347.9" r="5.8" fill="#9d9686"/>
<circle cx="749.4" cy="393.3" r="9" fill="#F2ECE0" stroke="#1A1A1A" stroke-width="1.4"/>
<circle cx="749.4" cy="393.3" r="5.8" fill="#9d9686"/>
<circle cx="777.2" cy="445.2" r="9" fill="#F2ECE0" stroke="#1A1A1A" stroke-width="1.4"/>
<circle cx="777.2" cy="445.2" r="5.8" fill="#9d9686"/>
<circle cx="794.2" cy="501.5" r="9" fill="#F2ECE0" stroke="#1A1A1A" stroke-width="1.4"/>
<circle cx="794.2" cy="501.5" r="5.8" fill="#9d9686"/>
<circle cx="800.0" cy="560.0" r="9" fill="#F2ECE0" stroke="#1A1A1A" stroke-width="1.4"/>
<circle cx="800.0" cy="560.0" r="5.8" fill="#9d9686"/>
<circle cx="794.2" cy="618.5" r="9" fill="#F2ECE0" stroke="#1A1A1A" stroke-width="1.4"/>
<circle cx="794.2" cy="618.5" r="5.8" fill="#9d9686"/>
<circle cx="777.2" cy="674.8" r="9" fill="#F2ECE0" stroke="#1A1A1A" stroke-width="1.4"/>
<circle cx="777.2" cy="674.8" r="5.8" fill="#9d9686"/>
<circle cx="749.4" cy="726.7" r="9" fill="#F2ECE0" stroke="#1A1A1A" stroke-width="1.4"/>
<circle cx="749.4" cy="726.7" r="5.8" fill="#9d9686"/>
<circle cx="712.1" cy="772.1" r="9" fill="#F2ECE0" stroke="#1A1A1A" stroke-width="1.4"/>
<circle cx="712.1" cy="772.1" r="5.8" fill="#9d9686"/>
<circle cx="666.7" cy="809.4" r="9" fill="#F2ECE0" stroke="#1A1A1A" stroke-width="1.4"/>
<circle cx="666.7" cy="809.4" r="5.8" fill="#9d9686"/>
<circle cx="614.8" cy="837.2" r="9" fill="#F2ECE0" stroke="#1A1A1A" stroke-width="1.4"/>
<circle cx="614.8" cy="837.2" r="5.8" fill="#9d9686"/>
<circle cx="558.5" cy="854.2" r="9" fill="#F2ECE0" stroke="#1A1A1A" stroke-width="1.4"/>
<circle cx="558.5" cy="854.2" r="5.8" fill="#9d9686"/>
<circle cx="500.0" cy="860.0" r="9" fill="#F2ECE0" stroke="#1A1A1A" stroke-width="1.4"/>
<circle cx="500.0" cy="860.0" r="5.8" fill="#9d9686"/>
<circle cx="441.5" cy="854.2" r="9" fill="#F2ECE0" stroke="#1A1A1A" stroke-width="1.4"/>
<circle cx="441.5" cy="854.2" r="5.8" fill="#9d9686"/>
<circle cx="385.2" cy="837.2" r="9" fill="#F2ECE0" stroke="#1A1A1A" stroke-width="1.4"/>
<circle cx="385.2" cy="837.2" r="5.8" fill="#9d9686"/>
<circle cx="333.3" cy="809.4" r="9" fill="#F2ECE0" stroke="#1A1A1A" stroke-width="1.4"/>
<circle cx="333.3" cy="809.4" r="5.8" fill="#9d9686"/>
<circle cx="287.9" cy="772.1" r="9" fill="#F2ECE0" stroke="#1A1A1A" stroke-width="1.4"/>
<circle cx="287.9" cy="772.1" r="5.8" fill="#9d9686"/>
<circle cx="250.6" cy="726.7" r="9" fill="#F2ECE0" stroke="#1A1A1A" stroke-width="1.4"/>
<circle cx="250.6" cy="726.7" r="5.8" fill="#9d9686"/>
<circle cx="222.8" cy="674.8" r="9" fill="#F2ECE0" stroke="#1A1A1A" stroke-width="1.4"/>
<circle cx="222.8" cy="674.8" r="5.8" fill="#9d9686"/>
<circle cx="205.8" cy="618.5" r="9" fill="#F2ECE0" stroke="#1A1A1A" stroke-width="1.4"/>
<circle cx="205.8" cy="618.5" r="5.8" fill="#9d9686"/>
<circle cx="200.0" cy="560.0" r="9" fill="#F2ECE0" stroke="#1A1A1A" stroke-width="1.4"/>
<circle cx="200.0" cy="560.0" r="5.8" fill="#9d9686"/>
<circle cx="205.8" cy="501.5" r="9" fill="#F2ECE0" stroke="#1A1A1A" stroke-width="1.4"/>
<circle cx="205.8" cy="501.5" r="5.8" fill="#9d9686"/>
<circle cx="222.8" cy="445.2" r="9" fill="#F2ECE0" stroke="#1A1A1A" stroke-width="1.4"/>
<circle cx="222.8" cy="445.2" r="5.8" fill="#9d9686"/>
<circle cx="250.6" cy="393.3" r="9" fill="#F2ECE0" stroke="#1A1A1A" stroke-width="1.4"/>
<circle cx="250.6" cy="393.3" r="5.8" fill="#9d9686"/>
<circle cx="287.9" cy="347.9" r="9" fill="#F2ECE0" stroke="#1A1A1A" stroke-width="1.4"/>
<circle cx="287.9" cy="347.9" r="5.8" fill="#9d9686"/>
<circle cx="333.3" cy="310.6" r="9" fill="#F2ECE0" stroke="#1A1A1A" stroke-width="1.4"/>
<circle cx="333.3" cy="310.6" r="5.8" fill="#9d9686"/>
<circle cx="385.2" cy="282.8" r="9" fill="#F2ECE0" stroke="#1A1A1A" stroke-width="1.4"/>
<circle cx="385.2" cy="282.8" r="5.8" fill="#9d9686"/>
<circle cx="441.5" cy="265.8" r="9" fill="#F2ECE0" stroke="#1A1A1A" stroke-width="1.4"/>
<circle cx="441.5" cy="265.8" r="5.8" fill="#9d9686"/>
<circle cx="523.3" cy="323.1" r="8.5" fill="#F2ECE0" stroke="#1A1A1A" stroke-width="1.4"/>
<circle cx="612.2" cy="350.1" r="8.5" fill="#F2ECE0" stroke="#1A1A1A" stroke-width="1.4"/>
<circle cx="684.0" cy="409.0" r="8.5" fill="#F2ECE0" stroke="#1A1A1A" stroke-width="1.4"/>
<circle cx="727.8" cy="490.9" r="8.5" fill="#F2ECE0" stroke="#1A1A1A" stroke-width="1.4"/>
<circle cx="736.9" cy="583.3" r="8.5" fill="#F2ECE0" stroke="#1A1A1A" stroke-width="1.4"/>
<circle cx="709.9" cy="672.2" r="8.5" fill="#F2ECE0" stroke="#1A1A1A" stroke-width="1.4"/>
<circle cx="651.0" cy="744.0" r="8.5" fill="#F2ECE0" stroke="#1A1A1A" stroke-width="1.4"/>
<circle cx="569.1" cy="787.8" r="8.5" fill="#F2ECE0" stroke="#1A1A1A" stroke-width="1.4"/>
<circle cx="476.7" cy="796.9" r="8.5" fill="#F2ECE0" stroke="#1A1A1A" stroke-width="1.4"/>
<circle cx="387.8" cy="769.9" r="8.5" fill="#F2ECE0" stroke="#1A1A1A" stroke-width="1.4"/>
<circle cx="316.0" cy="711.0" r="8.5" fill="#F2ECE0" stroke="#1A1A1A" stroke-width="1.4"/>
<circle cx="272.2" cy="629.1" r="8.5" fill="#F2ECE0" stroke="#1A1A1A" stroke-width="1.4"/>
<circle cx="263.1" cy="536.7" r="8.5" fill="#F2ECE0" stroke="#1A1A1A" stroke-width="1.4"/>
<circle cx="290.1" cy="447.8" r="8.5" fill="#F2ECE0" stroke="#1A1A1A" stroke-width="1.4"/>
<circle cx="349.0" cy="376.0" r="8.5" fill="#F2ECE0" stroke="#1A1A1A" stroke-width="1.4"/>
<circle cx="430.9" cy="332.2" r="8.5" fill="#F2ECE0" stroke="#1A1A1A" stroke-width="1.4"/>
<circle cx="552.3" cy="387.8" r="8" fill="#F2ECE0" stroke="#1A1A1A" stroke-width="1.4"/>
<circle cx="658.7" cy="475.1" r="8" fill="#F2ECE0" stroke="#1A1A1A" stroke-width="1.4"/>
<circle cx="672.2" cy="612.3" r="8" fill="#F2ECE0" stroke="#1A1A1A" stroke-width="1.4"/>
<circle cx="584.9" cy="718.7" r="8" fill="#F2ECE0" stroke="#1A1A1A" stroke-width="1.4"/>
<circle cx="447.7" cy="732.2" r="8" fill="#F2ECE0" stroke="#1A1A1A" stroke-width="1.4"/>
<circle cx="341.3" cy="644.9" r="8" fill="#F2ECE0" stroke="#1A1A1A" stroke-width="1.4"/>
<circle cx="327.8" cy="507.7" r="8" fill="#F2ECE0" stroke="#1A1A1A" stroke-width="1.4"/>
<circle cx="415.1" cy="401.3" r="8" fill="#F2ECE0" stroke="#1A1A1A" stroke-width="1.4"/>
<circle cx="578.7" cy="464.1" r="7.5" fill="#F2ECE0" stroke="#1A1A1A" stroke-width="1.4"/>
<circle cx="595.9" cy="638.7" r="7.5" fill="#F2ECE0" stroke="#1A1A1A" stroke-width="1.4"/>
<circle cx="421.3" cy="655.9" r="7.5" fill="#F2ECE0" stroke="#1A1A1A" stroke-width="1.4"/>
<circle cx="404.1" cy="481.3" r="7.5" fill="#F2ECE0" stroke="#1A1A1A" stroke-width="1.4"/>
<circle cx="569.7" cy="553.1" r="7" fill="#F2ECE0" stroke="#1A1A1A" stroke-width="1.4"/>
<circle cx="430.3" cy="566.9" r="7" fill="#F2ECE0" stroke="#1A1A1A" stroke-width="1.4"/>
<circle cx="500" cy="560" r="30" fill="#EDE6D6" stroke="#C8A24B" stroke-width="2.5"/><text x="500" y="572" text-anchor="middle" font-size="34">🏆</text><text x="500" y="604" text-anchor="middle" font-size="9.5" letter-spacing="2.5" font-weight="700" fill="#C8A24B">CAMPEÓN</text>
<text x="500" y="290" text-anchor="middle" font-size="10.5" letter-spacing="3.5" font-weight="700" fill="#b6af9f">32AVOS</text>
<text x="500" y="351" text-anchor="middle" font-size="10.5" letter-spacing="3.5" font-weight="700" fill="#b6af9f">OCTAVOS</text>
<text x="500" y="408" text-anchor="middle" font-size="10.5" letter-spacing="3.5" font-weight="700" fill="#b6af9f">CUARTOS</text>
<text x="500" y="463" text-anchor="middle" font-size="10.5" letter-spacing="3.5" font-weight="700" fill="#b6af9f">SEMIS</text>
<path d="M 518.4 208.5 A 352 352 0 0 1 659.8 246.4 L 700.7 166.2 A 442 442 0 0 0 523.1 118.6 Z" fill="#EDE6D6" stroke="#1A1A1A" stroke-width="1.2"/>
<circle cx="541.5" cy="165.2" r="9" fill="#C8A24B" stroke="#1A1A1A" stroke-width="1.3"/>
<circle cx="582.5" cy="171.7" r="9" fill="#C8A24B" stroke="#1A1A1A" stroke-width="1.3"/>
<circle cx="622.7" cy="182.4" r="9" fill="#C7C0B1" stroke="#a49d8d" stroke-width="1.2"/>
<circle cx="661.5" cy="197.3" r="9" fill="#C7C0B1" stroke="#a49d8d" stroke-width="1.2"/>
<text x="620.1" y="111.8" text-anchor="middle" dominant-baseline="central" font-size="15" font-weight="800" fill="#1A1A1A">A</text>
<line x1="590.1" y1="223.9" x2="581.8" y2="254.8" stroke="#C8A24B" stroke-width="2.6" opacity="0.9"/>
<path d="M 580.8 258.6 L 569.6 243.6 L 598.0 251.2 Z" fill="#C8A24B"/>
<path d="M 691.7 264.8 A 352 352 0 0 1 795.2 368.3 L 870.7 319.3 A 442 442 0 0 0 740.7 189.3 Z" fill="#EDE6D6" stroke="#1A1A1A" stroke-width="1.2"/>
<circle cx="733.4" cy="238.8" r="9" fill="#C8A24B" stroke="#1A1A1A" stroke-width="1.3"/>
<circle cx="765.6" cy="265.0" r="9" fill="#C8A24B" stroke="#1A1A1A" stroke-width="1.3"/>
<circle cx="795.0" cy="294.4" r="9" fill="#C7C0B1" stroke="#a49d8d" stroke-width="1.2"/>
<circle cx="821.2" cy="326.6" r="9" fill="#C7C0B1" stroke="#a49d8d" stroke-width="1.2"/>
<text x="828.1" y="231.9" text-anchor="middle" dominant-baseline="central" font-size="15" font-weight="800" fill="#1A1A1A">B</text>
<line x1="746.1" y1="313.9" x2="723.4" y2="336.6" stroke="#C8A24B" stroke-width="2.6" opacity="0.9"/>
<path d="M 720.6 339.4 L 718.5 320.7 L 739.3 341.5 Z" fill="#C8A24B"/>
<path d="M 813.6 400.2 A 352 352 0 0 1 851.5 541.6 L 941.4 536.9 A 442 442 0 0 0 893.8 359.3 Z" fill="#EDE6D6" stroke="#1A1A1A" stroke-width="1.2"/>
<circle cx="862.7" cy="398.5" r="9" fill="#C8A24B" stroke="#1A1A1A" stroke-width="1.3"/>
<circle cx="877.6" cy="437.3" r="9" fill="#C8A24B" stroke="#1A1A1A" stroke-width="1.3"/>
<circle cx="888.3" cy="477.5" r="9" fill="#C7C0B1" stroke="#a49d8d" stroke-width="1.2"/>
<circle cx="894.8" cy="518.5" r="9" fill="#C7C0B1" stroke="#a49d8d" stroke-width="1.2"/>
<text x="948.2" y="439.9" text-anchor="middle" dominant-baseline="central" font-size="15" font-weight="800" fill="#1A1A1A">C</text>
<line x1="836.1" y1="469.9" x2="805.2" y2="478.2" stroke="#C8A24B" stroke-width="2.6" opacity="0.9"/>
<path d="M 801.4 479.2 L 808.8 462.0 L 816.4 490.4 Z" fill="#C8A24B"/>
<path d="M 851.5 578.4 A 352 352 0 0 1 813.6 719.8 L 893.8 760.7 A 442 442 0 0 0 941.4 583.1 Z" fill="#EDE6D6" stroke="#1A1A1A" stroke-width="1.2"/>
<circle cx="894.8" cy="601.5" r="9" fill="#C8A24B" stroke="#1A1A1A" stroke-width="1.3"/>
<circle cx="888.3" cy="642.5" r="9" fill="#C8A24B" stroke="#1A1A1A" stroke-width="1.3"/>
<circle cx="877.6" cy="682.7" r="9" fill="#C7C0B1" stroke="#a49d8d" stroke-width="1.2"/>
<circle cx="862.7" cy="721.5" r="9" fill="#C7C0B1" stroke="#a49d8d" stroke-width="1.2"/>
<text x="948.2" y="680.1" text-anchor="middle" dominant-baseline="central" font-size="15" font-weight="800" fill="#1A1A1A">D</text>
<line x1="836.1" y1="650.1" x2="805.2" y2="641.8" stroke="#C8A24B" stroke-width="2.6" opacity="0.9"/>
<path d="M 801.4 640.8 L 816.4 629.6 L 808.8 658.0 Z" fill="#C8A24B"/>
<path d="M 795.2 751.7 A 352 352 0 0 1 691.7 855.2 L 740.7 930.7 A 442 442 0 0 0 870.7 800.7 Z" fill="#EDE6D6" stroke="#1A1A1A" stroke-width="1.2"/>
<circle cx="821.2" cy="793.4" r="9" fill="#C8A24B" stroke="#1A1A1A" stroke-width="1.3"/>
<circle cx="795.0" cy="825.6" r="9" fill="#C8A24B" stroke="#1A1A1A" stroke-width="1.3"/>
<circle cx="765.6" cy="855.0" r="9" fill="#C7C0B1" stroke="#a49d8d" stroke-width="1.2"/>
<circle cx="733.4" cy="881.2" r="9" fill="#C7C0B1" stroke="#a49d8d" stroke-width="1.2"/>
<text x="828.1" y="888.1" text-anchor="middle" dominant-baseline="central" font-size="15" font-weight="800" fill="#1A1A1A">E</text>
<line x1="746.1" y1="806.1" x2="723.4" y2="783.4" stroke="#C8A24B" stroke-width="2.6" opacity="0.9"/>
<path d="M 720.6 780.6 L 739.3 778.5 L 718.5 799.3 Z" fill="#C8A24B"/>
<path d="M 659.8 873.6 A 352 352 0 0 1 518.4 911.5 L 523.1 1001.4 A 442 442 0 0 0 700.7 953.8 Z" fill="#EDE6D6" stroke="#1A1A1A" stroke-width="1.2"/>
<circle cx="661.5" cy="922.7" r="9" fill="#C8A24B" stroke="#1A1A1A" stroke-width="1.3"/>
<circle cx="622.7" cy="937.6" r="9" fill="#C8A24B" stroke="#1A1A1A" stroke-width="1.3"/>
<circle cx="582.5" cy="948.3" r="9" fill="#C7C0B1" stroke="#a49d8d" stroke-width="1.2"/>
<circle cx="541.5" cy="954.8" r="9" fill="#C7C0B1" stroke="#a49d8d" stroke-width="1.2"/>
<text x="620.1" y="1008.2" text-anchor="middle" dominant-baseline="central" font-size="15" font-weight="800" fill="#1A1A1A">F</text>
<line x1="590.1" y1="896.1" x2="581.8" y2="865.2" stroke="#C8A24B" stroke-width="2.6" opacity="0.9"/>
<path d="M 580.8 861.4 L 598.0 868.8 L 569.6 876.4 Z" fill="#C8A24B"/>
<path d="M 481.6 911.5 A 352 352 0 0 1 340.2 873.6 L 299.3 953.8 A 442 442 0 0 0 476.9 1001.4 Z" fill="#EDE6D6" stroke="#1A1A1A" stroke-width="1.2"/>
<circle cx="458.5" cy="954.8" r="9" fill="#C8A24B" stroke="#1A1A1A" stroke-width="1.3"/>
<circle cx="417.5" cy="948.3" r="9" fill="#C8A24B" stroke="#1A1A1A" stroke-width="1.3"/>
<circle cx="377.3" cy="937.6" r="9" fill="#C7C0B1" stroke="#a49d8d" stroke-width="1.2"/>
<circle cx="338.5" cy="922.7" r="9" fill="#C7C0B1" stroke="#a49d8d" stroke-width="1.2"/>
<text x="379.9" y="1008.2" text-anchor="middle" dominant-baseline="central" font-size="15" font-weight="800" fill="#1A1A1A">G</text>
<line x1="409.9" y1="896.1" x2="418.2" y2="865.2" stroke="#C8A24B" stroke-width="2.6" opacity="0.9"/>
<path d="M 419.2 861.4 L 430.4 876.4 L 402.0 868.8 Z" fill="#C8A24B"/>
<path d="M 308.3 855.2 A 352 352 0 0 1 204.8 751.7 L 129.3 800.7 A 442 442 0 0 0 259.3 930.7 Z" fill="#EDE6D6" stroke="#1A1A1A" stroke-width="1.2"/>
<circle cx="266.6" cy="881.2" r="9" fill="#C8A24B" stroke="#1A1A1A" stroke-width="1.3"/>
<circle cx="234.4" cy="855.0" r="9" fill="#C8A24B" stroke="#1A1A1A" stroke-width="1.3"/>
<circle cx="205.0" cy="825.6" r="9" fill="#C7C0B1" stroke="#a49d8d" stroke-width="1.2"/>
<circle cx="178.8" cy="793.4" r="9" fill="#C7C0B1" stroke="#a49d8d" stroke-width="1.2"/>
<text x="171.9" y="888.1" text-anchor="middle" dominant-baseline="central" font-size="15" font-weight="800" fill="#1A1A1A">H</text>
<line x1="253.9" y1="806.1" x2="276.6" y2="783.4" stroke="#C8A24B" stroke-width="2.6" opacity="0.9"/>
<path d="M 279.4 780.6 L 281.5 799.3 L 260.7 778.5 Z" fill="#C8A24B"/>
<path d="M 186.4 719.8 A 352 352 0 0 1 148.5 578.4 L 58.6 583.1 A 442 442 0 0 0 106.2 760.7 Z" fill="#EDE6D6" stroke="#1A1A1A" stroke-width="1.2"/>
<circle cx="137.3" cy="721.5" r="9" fill="#C8A24B" stroke="#1A1A1A" stroke-width="1.3"/>
<circle cx="122.4" cy="682.7" r="9" fill="#C8A24B" stroke="#1A1A1A" stroke-width="1.3"/>
<circle cx="111.7" cy="642.5" r="9" fill="#C7C0B1" stroke="#a49d8d" stroke-width="1.2"/>
<circle cx="105.2" cy="601.5" r="9" fill="#C7C0B1" stroke="#a49d8d" stroke-width="1.2"/>
<text x="51.8" y="680.1" text-anchor="middle" dominant-baseline="central" font-size="15" font-weight="800" fill="#1A1A1A">I</text>
<line x1="163.9" y1="650.1" x2="194.8" y2="641.8" stroke="#C8A24B" stroke-width="2.6" opacity="0.9"/>
<path d="M 198.6 640.8 L 191.2 658.0 L 183.6 629.6 Z" fill="#C8A24B"/>
<path d="M 148.5 541.6 A 352 352 0 0 1 186.4 400.2 L 106.2 359.3 A 442 442 0 0 0 58.6 536.9 Z" fill="#EDE6D6" stroke="#1A1A1A" stroke-width="1.2"/>
<circle cx="105.2" cy="518.5" r="9" fill="#C8A24B" stroke="#1A1A1A" stroke-width="1.3"/>
<circle cx="111.7" cy="477.5" r="9" fill="#C8A24B" stroke="#1A1A1A" stroke-width="1.3"/>
<circle cx="122.4" cy="437.3" r="9" fill="#C7C0B1" stroke="#a49d8d" stroke-width="1.2"/>
<circle cx="137.3" cy="398.5" r="9" fill="#C7C0B1" stroke="#a49d8d" stroke-width="1.2"/>
<text x="51.8" y="439.9" text-anchor="middle" dominant-baseline="central" font-size="15" font-weight="800" fill="#1A1A1A">J</text>
<line x1="163.9" y1="469.9" x2="194.8" y2="478.2" stroke="#C8A24B" stroke-width="2.6" opacity="0.9"/>
<path d="M 198.6 479.2 L 183.6 490.4 L 191.2 462.0 Z" fill="#C8A24B"/>
<path d="M 204.8 368.3 A 352 352 0 0 1 308.3 264.8 L 259.3 189.3 A 442 442 0 0 0 129.3 319.3 Z" fill="#EDE6D6" stroke="#1A1A1A" stroke-width="1.2"/>
<circle cx="178.8" cy="326.6" r="9" fill="#C8A24B" stroke="#1A1A1A" stroke-width="1.3"/>
<circle cx="205.0" cy="294.4" r="9" fill="#C8A24B" stroke="#1A1A1A" stroke-width="1.3"/>
<circle cx="234.4" cy="265.0" r="9" fill="#C7C0B1" stroke="#a49d8d" stroke-width="1.2"/>
<circle cx="266.6" cy="238.8" r="9" fill="#C7C0B1" stroke="#a49d8d" stroke-width="1.2"/>
<text x="171.9" y="231.9" text-anchor="middle" dominant-baseline="central" font-size="15" font-weight="800" fill="#1A1A1A">K</text>
<line x1="253.9" y1="313.9" x2="276.6" y2="336.6" stroke="#C8A24B" stroke-width="2.6" opacity="0.9"/>
<path d="M 279.4 339.4 L 260.7 341.5 L 281.5 320.7 Z" fill="#C8A24B"/>
<path d="M 340.2 246.4 A 352 352 0 0 1 481.6 208.5 L 476.9 118.6 A 442 442 0 0 0 299.3 166.2 Z" fill="#EDE6D6" stroke="#1A1A1A" stroke-width="1.2"/>
<circle cx="338.5" cy="197.3" r="9" fill="#C8A24B" stroke="#1A1A1A" stroke-width="1.3"/>
<circle cx="377.3" cy="182.4" r="9" fill="#C8A24B" stroke="#1A1A1A" stroke-width="1.3"/>
<circle cx="417.5" cy="171.7" r="9" fill="#C7C0B1" stroke="#a49d8d" stroke-width="1.2"/>
<circle cx="458.5" cy="165.2" r="9" fill="#C7C0B1" stroke="#a49d8d" stroke-width="1.2"/>
<text x="379.9" y="111.8" text-anchor="middle" dominant-baseline="central" font-size="15" font-weight="800" fill="#1A1A1A">L</text>
<line x1="409.9" y1="223.9" x2="418.2" y2="254.8" stroke="#C8A24B" stroke-width="2.6" opacity="0.9"/>
<path d="M 419.2 258.6 L 402.0 251.2 L 430.4 243.6 Z" fill="#C8A24B"/>
<circle cx="330" cy="1058" r="8" fill="#C8A24B" stroke="#1A1A1A" stroke-width="1.2"/>
<text x="345" y="1062" font-size="12.5" fill="#1A1A1A">clasifica y se desliza al anillo de 32avos</text>
<circle cx="640" cy="1058" r="8" fill="#C7C0B1" stroke="#a49d8d" stroke-width="1.2"/>
<text x="655" y="1062" font-size="12.5" fill="#1A1A1A">eliminado en grupos</text>
</svg>